<?xml version="1.0" encoding="UTF-8"?>
<svg xmlns="http://www.w3.org/2000/svg" xmlns:xlink="http://www.w3.org/1999/xlink" viewBox="0 0 1101.04 516.35">
  <defs>
    <style>
      .cls-1 {
        fill: #000025;
        mix-blend-mode: multiply;
        opacity: .48;
      }

      .cls-2 {
        isolation: isolate;
      }

      .cls-2, .cls-3, .cls-4 {
        fill: none;
      }

      .cls-5 {
        fill: #1c3f33;
      }

      .cls-6 {
        fill: url(#linear-gradient-2);
        filter: url(#drop-shadow-1);
      }

      .cls-3 {
        filter: url(#drop-shadow-2);
      }

      .cls-7 {
        fill: #00020a;
      }

      .cls-8 {
        fill: #300005;
      }

      .cls-4 {
        opacity: .65;
      }

      .cls-9 {
        fill: url(#linear-gradient-3);
      }

      .cls-10 {
        fill: #6d091a;
      }

      .cls-11 {
        fill: url(#linear-gradient);
      }
    </style>
    <linearGradient id="linear-gradient" x1="550.52" y1="0" x2="550.52" y2="494.35" gradientUnits="userSpaceOnUse">
      <stop offset="0" stop-color="#a8022a"/>
      <stop offset="1" stop-color="#93062f"/>
    </linearGradient>
    <linearGradient id="linear-gradient-2" x1="208.12" y1="243.09" x2="340.61" y2="110.6" gradientUnits="userSpaceOnUse">
      <stop offset="0" stop-color="#1c1c33"/>
      <stop offset="1" stop-color="#46466b"/>
    </linearGradient>
    <filter id="drop-shadow-1" filterUnits="userSpaceOnUse">
      <feOffset dx="0" dy="0"/>
      <feGaussianBlur result="blur" stdDeviation="5"/>
      <feFlood flood-color="#000" flood-opacity=".43"/>
      <feComposite in2="blur" operator="in"/>
      <feComposite in="SourceGraphic"/>
    </filter>
    <filter id="drop-shadow-2" filterUnits="userSpaceOnUse">
      <feOffset dx="0" dy="0"/>
      <feGaussianBlur result="blur-2" stdDeviation="5"/>
      <feFlood flood-color="#01021c" flood-opacity=".3"/>
      <feComposite in2="blur-2" operator="in"/>
      <feComposite in="SourceGraphic"/>
    </filter>
    <linearGradient id="linear-gradient-3" x1="245.36" y1="418.6" x2="309.64" y2="354.31" gradientUnits="userSpaceOnUse">
      <stop offset="0" stop-color="#32ba3f"/>
      <stop offset="1" stop-color="#78ffdf"/>
    </linearGradient>
  </defs>
  <g class="cls-2">
    <g id="Layer_2" data-name="Layer 2">
      <g id="Layer_1-2" data-name="Layer 1">
        <g>
          <path class="cls-8" d="m1081.04,516.35H20.01C8.96,516.35,0,507.39,0,496.35V19.35h1101.03v477c0,11.05-8.95,20-20,20Z"/>
          <path class="cls-11" d="m1081.04,494.35H20.01C8.96,494.35,0,485.39,0,474.35V0h1101.03v474.35c0,11.05-8.95,20-20,20Z"/>
          <g class="cls-4">
            <path class="cls-10" d="m1080.52,9.42v472.56H39.77c-10.23,0-18.55-8.32-18.55-18.55V9.42h1059.3m.72-.72H20.5v454.73c0,10.64,8.63,19.27,19.27,19.27h1041.48V8.7h0Z"/>
          </g>
          <g>
            <polygon class="cls-7" points="168.55 203.51 171.82 206.55 247.69 206.55 247.69 282.66 250.97 285.7 304.31 285.7 304.31 206.55 383.45 206.55 383.45 153.21 380.18 150.17 304.31 153.21 304.31 74.06 301.03 71.03 250.36 160.48 168.55 203.51"/>
            <polygon class="cls-6" points="380.18 150.17 301.03 150.17 301.03 71.03 247.69 71.03 247.69 150.17 168.55 150.17 168.55 203.51 247.69 203.51 247.69 282.66 301.03 282.66 301.03 203.51 380.18 203.51 380.18 150.17"/>
          </g>
          <rect class="cls-1" width="1101.04" height="13.04"/>
          <g class="cls-3">
            <circle class="cls-5" cx="280.61" cy="389.08" r="45.46"/>
            <circle class="cls-9" cx="277.5" cy="386.46" r="45.46"/>
          </g>
        </g>
      </g>
    </g>
  </g>
</svg>