<?xml version="1.0" encoding="utf-8"?>
<svg viewBox="-79.993 158.541 353.33 353.616" xmlns="http://www.w3.org/2000/svg">
  <defs>
    <filter id="outer-glow-27" filterUnits="userSpaceOnUse">
      <feOffset dx="0" dy="0"/>
      <feGaussianBlur result="blur-3" stdDeviation="2"/>
      <feFlood flood-color="#f91700" flood-opacity=".6"/>
      <feComposite in2="blur-3" operator="in"/>
      <feComposite in="SourceGraphic"/>
    </filter>
    <filter id="outer-glow-28" filterUnits="userSpaceOnUse">
      <feOffset dx="0" dy="0"/>
      <feGaussianBlur result="blur-4" stdDeviation="2"/>
      <feFlood flood-color="#f91700" flood-opacity=".6"/>
      <feComposite in2="blur-4" operator="in"/>
      <feComposite in="SourceGraphic"/>
    </filter>
    <filter id="outer-glow-29" filterUnits="userSpaceOnUse">
      <feOffset dx="0" dy="0"/>
      <feGaussianBlur result="blur-5" stdDeviation="2"/>
      <feFlood flood-color="#f91700" flood-opacity=".6"/>
      <feComposite in2="blur-5" operator="in"/>
      <feComposite in="SourceGraphic"/>
    </filter>
  </defs>
  <path class="cls-4" d="M 104.769 310.774 L 93.079 288.774 C 92.199 287.114 90.139 286.484 88.479 287.364 L 66.479 299.054 C 64.819 299.934 64.189 301.994 65.069 303.654 L 76.759 325.654 C 77.639 327.314 77.009 329.364 75.349 330.254 L 53.349 341.944 C 51.689 342.824 51.059 344.884 51.939 346.544 L 63.629 368.544 C 64.509 370.204 66.569 370.834 68.229 369.954 L 90.229 358.264 C 91.889 357.384 93.939 358.014 94.829 359.674 L 106.519 381.674 C 107.399 383.334 109.459 383.964 111.119 383.084 L 133.119 371.394 C 134.779 370.514 135.409 368.454 134.529 366.794 L 122.839 344.794 C 121.959 343.134 122.589 341.084 124.249 340.194 L 146.249 328.504 C 147.909 327.624 148.539 325.564 147.659 323.904 L 135.969 301.904 C 135.089 300.244 133.029 299.614 131.369 300.494 L 109.369 312.184 C 107.709 313.064 105.659 312.434 104.769 310.774 Z" style="fill: rgb(3, 5, 0); filter: url('#outer-glow-27'); stroke: rgb(237, 65, 54); stroke-miterlimit: 10; stroke-width: 2px;"/>
  <text class="cls-12" style="white-space: pre; fill: rgb(255, 255, 255); font-family: ArialRoundedMTBold, 'Arial Rounded MT Bold'; font-size: 19.83px; line-height: 31.728px; perspective-origin: 4.95312px 2px; stroke: rgb(255, 255, 255); stroke-miterlimit: 10; stroke-width: 0.5px;" x="97.319" y="342.141"><tspan x="97.319" y="342.141" style="font-size: 19.8px; word-spacing: 0px;">1</tspan></text>
  <path class="cls-3" d="M 138.389 226.013 L 140.079 212.893 C 140.209 211.903 139.509 211.003 138.519 210.873 L 125.399 209.183 C 124.409 209.053 123.509 209.753 123.379 210.743 L 121.689 223.863 C 121.559 224.853 120.659 225.553 119.669 225.423 L 106.549 223.733 C 105.559 223.603 104.659 224.303 104.529 225.293 L 102.839 238.413 C 102.709 239.403 103.409 240.303 104.399 240.433 L 117.519 242.123 C 118.509 242.253 119.209 243.153 119.079 244.143 L 117.389 257.263 C 117.259 258.253 117.959 259.153 118.949 259.283 L 132.069 260.973 C 133.059 261.103 133.959 260.403 134.089 259.413 L 135.779 246.293 C 135.909 245.303 136.809 244.603 137.799 244.733 L 150.919 246.423 C 151.909 246.553 152.809 245.853 152.939 244.863 L 154.629 231.743 C 154.759 230.753 154.059 229.853 153.069 229.723 L 139.949 228.033 C 138.959 227.903 138.259 227.003 138.389 226.013 Z" style="fill: rgb(3, 5, 0); filter: url('#outer-glow-28'); stroke: rgb(237, 65, 54); stroke-miterlimit: 10; stroke-width: 2px;"/>
  <path class="cls-5" d="M 74.309 176.698 L 67.999 170.538 C 67.519 170.078 66.759 170.078 66.299 170.558 L 60.139 176.868 C 59.679 177.348 59.679 178.108 60.159 178.568 L 66.469 184.728 C 66.949 185.188 66.949 185.958 66.489 186.428 L 60.329 192.738 C 59.869 193.218 59.869 193.978 60.349 194.438 L 66.659 200.598 C 67.139 201.058 67.899 201.058 68.359 200.578 L 74.519 194.268 C 74.979 193.788 75.749 193.788 76.219 194.248 L 82.529 200.408 C 83.009 200.868 83.769 200.868 84.229 200.388 L 90.389 194.078 C 90.849 193.598 90.849 192.838 90.369 192.378 L 84.059 186.218 C 83.579 185.758 83.579 184.988 84.039 184.518 L 90.199 178.208 C 90.659 177.728 90.659 176.968 90.179 176.508 L 83.869 170.348 C 83.389 169.888 82.629 169.888 82.169 170.368 L 76.009 176.678 C 75.549 177.158 74.779 177.158 74.309 176.698 Z" style="fill: rgb(3, 5, 0); filter: url('#outer-glow-29'); stroke: rgb(237, 65, 54); stroke-miterlimit: 10; stroke-width: 2px;"/>
</svg>