<?xml version="1.0" encoding="utf-8"?>
<svg viewBox="46.697 35.308 241.457 145.217" width="241.457" height="145.217" xmlns="http://www.w3.org/2000/svg">
  <defs>
    <filter id="outer-glow-35" filterUnits="userSpaceOnUse">
      <feOffset dx="0" dy="0"/>
      <feGaussianBlur result="blur-10" stdDeviation="2"/>
      <feFlood flood-color="#2a00f9" flood-opacity="1"/>
      <feComposite in2="blur-10" operator="in"/>
      <feComposite in="SourceGraphic"/>
    </filter>
    <filter id="outer-glow-36" filterUnits="userSpaceOnUse">
      <feOffset dx="0" dy="0"/>
      <feGaussianBlur result="blur-11" stdDeviation="2"/>
      <feFlood flood-color="#2a00f9" flood-opacity="1"/>
      <feComposite in2="blur-11" operator="in"/>
      <feComposite in="SourceGraphic"/>
    </filter>
    <filter id="outer-glow-37" filterUnits="userSpaceOnUse">
      <feOffset dx="0" dy="0"/>
      <feGaussianBlur result="blur-12" stdDeviation="2"/>
      <feFlood flood-color="#2a00f9" flood-opacity="1"/>
      <feComposite in2="blur-12" operator="in"/>
      <feComposite in="SourceGraphic"/>
    </filter>
  </defs>
  <path class="cls-7" d="M 220.801 84.003 L 209.111 62.003 C 208.231 60.343 206.171 59.713 204.511 60.593 L 182.511 72.283 C 180.851 73.163 180.221 75.223 181.101 76.883 L 192.791 98.883 C 193.671 100.543 193.041 102.593 191.381 103.483 L 169.381 115.173 C 167.721 116.053 167.091 118.113 167.971 119.773 L 179.661 141.773 C 180.541 143.433 182.601 144.063 184.261 143.183 L 206.261 131.493 C 207.921 130.613 209.971 131.243 210.861 132.903 L 222.551 154.903 C 223.431 156.563 225.491 157.193 227.151 156.313 L 249.151 144.623 C 250.811 143.743 251.441 141.683 250.561 140.023 L 238.871 118.023 C 237.991 116.363 238.621 114.313 240.281 113.423 L 262.281 101.733 C 263.941 100.853 264.571 98.793 263.691 97.133 L 252.001 75.133 C 251.121 73.473 249.061 72.843 247.401 73.723 L 225.401 85.413 C 223.741 86.293 221.691 85.663 220.801 84.003 Z" style="fill: rgb(3, 5, 0); filter: url('#outer-glow-35'); stroke: rgb(46, 49, 144); stroke-miterlimit: 10; stroke-width: 2px;" transform="matrix(0.9999999999999999, 0, 0, 0.9999999999999999, -2.842170943040401e-14, -3.552713678800501e-15)"/>
  <path class="cls-6" d="M 138.357 71.482 L 140.047 58.362 C 140.177 57.372 139.477 56.472 138.487 56.342 L 125.367 54.652 C 124.377 54.522 123.477 55.222 123.347 56.212 L 121.657 69.332 C 121.527 70.322 120.627 71.022 119.637 70.892 L 106.517 69.202 C 105.527 69.072 104.627 69.772 104.497 70.762 L 102.807 83.882 C 102.677 84.872 103.377 85.772 104.367 85.902 L 117.487 87.592 C 118.477 87.722 119.177 88.622 119.047 89.612 L 117.357 102.732 C 117.227 103.722 117.927 104.622 118.917 104.752 L 132.037 106.442 C 133.027 106.572 133.927 105.872 134.057 104.882 L 135.747 91.762 C 135.877 90.772 136.777 90.072 137.767 90.202 L 150.887 91.892 C 151.877 92.022 152.777 91.322 152.907 90.332 L 154.597 77.212 C 154.727 76.222 154.027 75.322 153.037 75.192 L 139.917 73.502 C 138.927 73.372 138.227 72.472 138.357 71.482 Z" style="fill: rgb(3, 5, 0); filter: url('#outer-glow-36'); stroke: rgb(46, 49, 144); stroke-miterlimit: 10; stroke-width: 2px;" transform="matrix(0.9999999999999999, 0, 0, 0.9999999999999999, -2.842170943040401e-14, -3.552713678800501e-15)"/>
  <path class="cls-8" d="M 81.619 116.193 L 75.309 110.033 C 74.829 109.573 74.069 109.573 73.609 110.053 L 67.449 116.363 C 66.989 116.843 66.989 117.603 67.469 118.063 L 73.779 124.223 C 74.259 124.683 74.259 125.453 73.799 125.923 L 67.639 132.233 C 67.179 132.713 67.179 133.473 67.659 133.933 L 73.969 140.093 C 74.449 140.553 75.209 140.553 75.669 140.073 L 81.829 133.763 C 82.289 133.283 83.059 133.283 83.529 133.743 L 89.839 139.903 C 90.319 140.363 91.079 140.363 91.539 139.883 L 97.699 133.573 C 98.159 133.093 98.159 132.333 97.679 131.873 L 91.369 125.713 C 90.889 125.253 90.889 124.483 91.349 124.013 L 97.509 117.703 C 97.969 117.223 97.969 116.463 97.489 116.003 L 91.179 109.843 C 90.699 109.383 89.939 109.383 89.479 109.863 L 83.319 116.173 C 82.859 116.653 82.089 116.653 81.619 116.193 Z" style="fill: rgb(3, 5, 0); filter: url('#outer-glow-37'); stroke: rgb(46, 49, 144); stroke-miterlimit: 10; stroke-width: 2px;" transform="matrix(0.9999999999999999, 0, 0, 0.9999999999999999, -2.842170943040401e-14, -3.552713678800501e-15)"/>
  <text class="cls-12" style="white-space: pre; fill: rgb(255, 255, 255); font-family: ArialRoundedMTBold, 'Arial Rounded MT Bold'; font-size: 19.83px; line-height: 31.728px; perspective-origin: 4.95312px 2px; stroke: rgb(255, 255, 255); stroke-miterlimit: 10; stroke-width: 0.5px;" x="212.009" y="115.572" transform="matrix(0.9999999999999999, 0, 0, 0.9999999999999999, -2.842170943040401e-14, -3.552713678800501e-15)"><tspan x="212.009" y="115.572" style="font-size: 19.8px; word-spacing: 0px;">2</tspan></text>
</svg>