<?xml version="1.0" encoding="utf-8"?>
<!-- Generator: Adobe Illustrator 19.0.0, SVG Export Plug-In . SVG Version: 6.00 Build 0)  -->
<svg version="1.1" id="Layer_1" xmlns="http://www.w3.org/2000/svg" xmlns:xlink="http://www.w3.org/1999/xlink" x="0px" y="0px"
	 width="954.3px" height="326.8px" viewBox="0 0 954.3 326.8" style="enable-background:new 0 0 954.3 326.8;" xml:space="preserve"
	>
<style type="text/css">
	.st0{clip-path:url(#SVGID_1_);}
	.st1{clip-path:url(#SVGID_2_);fill:#0E9948;}
	.st2{clip-path:url(#SVGID_2_);fill:#32B44A;}
	.st3{clip-path:url(#SVGID_2_);fill:#68BD45;}
	.st4{clip-path:url(#SVGID_2_);fill:#108843;}
	.st5{clip-path:url(#SVGID_2_);fill:#A7D6A6;}
	.st6{clip-path:url(#SVGID_2_);fill:#4EB748;}
	.st7{clip-path:url(#SVGID_2_);fill:#10B04B;}
	.st8{clip-path:url(#SVGID_2_);fill:#58B947;}
	.st9{clip-path:url(#SVGID_2_);fill:#010101;}
</style>
<g>
	<defs>
		<rect id="SVGID_5_" width="954.3" height="326.8"/>
	</defs>
	<clipPath id="SVGID_1_">
		<use xlink:href="#SVGID_5_"  style="overflow:visible;"/>
	</clipPath>
	<g class="st0">
		<defs>
			<rect id="SVGID_7_" width="954.3" height="326.8"/>
		</defs>
		<clipPath id="SVGID_2_">
			<use xlink:href="#SVGID_7_"  style="overflow:visible;"/>
		</clipPath>
		<rect x="919" y="217.9" class="st1" width="35.3" height="27.2"/>
		<rect x="919" y="190.6" class="st1" width="35.3" height="27.2"/>
		<rect x="919" y="163.4" class="st1" width="35.3" height="27.2"/>
		<rect x="919" y="136.2" class="st1" width="35.3" height="27.2"/>
		<rect x="919" y="108.9" class="st2" width="35.3" height="27.2"/>
		<rect x="919" y="81.7" class="st3" width="35.3" height="27.2"/>
		<rect x="883.6" y="245.1" class="st4" width="35.3" height="27.2"/>
		<rect x="883.6" y="217.9" class="st1" width="35.3" height="27.2"/>
		<rect x="883.6" y="190.6" class="st1" width="35.3" height="27.2"/>
		<rect x="883.6" y="163.4" class="st2" width="35.3" height="27.2"/>
		<rect x="883.6" y="136.2" class="st2" width="35.3" height="27.2"/>
		<rect x="883.6" y="108.9" class="st2" width="35.3" height="27.2"/>
		<rect x="883.6" y="81.7" class="st2" width="35.3" height="27.2"/>
		<rect x="883.6" y="54.5" class="st5" width="35.3" height="27.2"/>
		<rect x="848.3" y="272.3" class="st4" width="35.3" height="27.2"/>
		<rect x="848.3" y="245.1" class="st1" width="35.3" height="27.2"/>
		<rect x="848.3" y="217.9" class="st2" width="35.3" height="27.2"/>
		<rect x="848.3" y="190.6" class="st2" width="35.3" height="27.2"/>
		<rect x="848.3" y="163.4" class="st6" width="35.3" height="27.2"/>
		<rect x="848.3" y="136.2" class="st6" width="35.3" height="27.2"/>
		<rect x="848.3" y="108.9" class="st6" width="35.3" height="27.2"/>
		<rect x="848.3" y="81.7" class="st2" width="35.3" height="27.2"/>
		<rect x="848.3" y="54.5" class="st3" width="35.3" height="27.2"/>
		<rect x="848.3" y="27.2" class="st5" width="35.3" height="27.2"/>
		<rect x="812.9" y="299.6" class="st4" width="35.3" height="27.2"/>
		<rect x="812.9" y="272.3" class="st1" width="35.3" height="27.2"/>
		<rect x="812.9" y="245.1" class="st1" width="35.3" height="27.2"/>
		<rect x="812.9" y="217.9" class="st7" width="35.3" height="27.2"/>
		<rect x="812.9" y="190.6" class="st7" width="35.3" height="27.2"/>
		<rect x="812.9" y="163.4" class="st6" width="35.3" height="27.2"/>
		<rect x="812.9" y="136.2" class="st6" width="35.3" height="27.2"/>
		<rect x="812.9" y="108.9" class="st6" width="35.3" height="27.2"/>
		<rect x="812.9" y="81.7" class="st6" width="35.3" height="27.2"/>
		<rect x="812.9" y="54.5" class="st3" width="35.3" height="27.2"/>
		<rect x="812.9" y="27.2" class="st3" width="35.3" height="27.2"/>
		<rect x="812.9" y="0" class="st5" width="35.3" height="27.2"/>
		<rect x="777.6" y="299.6" class="st4" width="35.3" height="27.2"/>
		<rect x="777.6" y="272.3" class="st1" width="35.3" height="27.2"/>
		<rect x="777.6" y="245.1" class="st7" width="35.3" height="27.2"/>
		<rect x="777.6" y="217.9" class="st7" width="35.3" height="27.2"/>
		<rect x="777.6" y="190.6" class="st6" width="35.3" height="27.2"/>
		<rect x="777.6" y="163.4" class="st6" width="35.3" height="27.2"/>
		<rect x="777.6" y="136.2" class="st6" width="35.3" height="27.2"/>
		<rect x="777.6" y="108.9" class="st6" width="35.3" height="27.2"/>
		<rect x="777.6" y="81.7" class="st6" width="35.3" height="27.2"/>
		<rect x="777.6" y="54.5" class="st6" width="35.3" height="27.2"/>
		<rect x="777.6" y="27.2" class="st3" width="35.3" height="27.2"/>
		<rect x="777.6" y="0" class="st3" width="35.3" height="27.2"/>
		<rect x="742.2" y="299.6" class="st1" width="35.3" height="27.2"/>
		<rect x="742.2" y="272.3" class="st7" width="35.3" height="27.2"/>
		<rect x="742.2" y="245.1" class="st8" width="35.3" height="27.2"/>
		<rect x="742.2" y="217.9" class="st6" width="35.3" height="27.2"/>
		<rect x="742.2" y="190.6" class="st6" width="35.3" height="27.2"/>
		<rect x="742.2" y="163.4" class="st6" width="35.3" height="27.2"/>
		<rect x="742.2" y="136.2" class="st6" width="35.3" height="27.2"/>
		<rect x="742.2" y="108.9" class="st6" width="35.3" height="27.2"/>
		<rect x="742.2" y="81.7" class="st9" width="35.3" height="27.2"/>
		<rect x="742.2" y="54.5" class="st6" width="35.3" height="27.2"/>
		<rect x="742.2" y="27.2" class="st3" width="35.3" height="27.2"/>
		<rect x="742.2" y="0" class="st3" width="35.3" height="27.2"/>
		<rect x="706.9" y="299.6" class="st1" width="35.3" height="27.2"/>
		<rect x="706.9" y="272.3" class="st7" width="35.3" height="27.2"/>
		<rect x="706.9" y="245.1" class="st8" width="35.3" height="27.2"/>
		<rect x="706.9" y="217.9" class="st6" width="35.3" height="27.2"/>
		<rect x="706.9" y="190.6" class="st6" width="35.3" height="27.2"/>
		<rect x="706.9" y="163.4" class="st6" width="35.3" height="27.2"/>
		<rect x="706.9" y="136.2" class="st6" width="35.3" height="27.2"/>
		<rect x="706.9" y="108.9" class="st9" width="35.3" height="27.2"/>
		<rect x="706.9" y="81.7" class="st6" width="35.3" height="27.2"/>
		<rect x="706.9" y="54.5" class="st6" width="35.3" height="27.2"/>
		<rect x="706.9" y="27.2" class="st6" width="35.3" height="27.2"/>
		<rect x="706.9" y="0" class="st3" width="35.3" height="27.2"/>
		<rect x="671.5" y="299.6" class="st1" width="35.3" height="27.2"/>
		<rect x="671.5" y="272.3" class="st7" width="35.3" height="27.2"/>
		<rect x="671.5" y="245.1" class="st6" width="35.3" height="27.2"/>
		<rect x="671.5" y="217.9" class="st9" width="35.3" height="27.2"/>
		<rect x="671.5" y="190.6" class="st9" width="35.3" height="27.2"/>
		<rect x="671.5" y="163.4" class="st9" width="35.3" height="27.2"/>
		<rect x="671.5" y="136.2" class="st9" width="35.3" height="27.2"/>
		<rect x="671.5" y="108.9" class="st6" width="35.3" height="27.2"/>
		<rect x="671.5" y="81.7" class="st6" width="35.3" height="27.2"/>
		<rect x="671.5" y="54.5" class="st6" width="35.3" height="27.2"/>
		<rect x="671.5" y="27.2" class="st6" width="35.3" height="27.2"/>
		<rect x="671.5" y="0" class="st3" width="35.3" height="27.2"/>
		<rect x="636.2" y="299.6" class="st1" width="35.3" height="27.2"/>
		<rect x="636.2" y="272.3" class="st8" width="35.3" height="27.2"/>
		<rect x="636.2" y="245.1" class="st6" width="35.3" height="27.2"/>
		<rect x="636.2" y="217.9" class="st6" width="35.3" height="27.2"/>
		<rect x="636.2" y="190.6" class="st6" width="35.3" height="27.2"/>
		<rect x="636.2" y="163.4" class="st6" width="35.3" height="27.2"/>
		<rect x="636.2" y="136.2" class="st6" width="35.3" height="27.2"/>
		<rect x="636.2" y="108.9" class="st9" width="35.3" height="27.2"/>
		<rect x="636.2" y="81.7" class="st6" width="35.3" height="27.2"/>
		<rect x="636.2" y="54.5" class="st6" width="35.3" height="27.2"/>
		<rect x="636.2" y="27.2" class="st6" width="35.3" height="27.2"/>
		<rect x="636.2" y="0" class="st3" width="35.3" height="27.2"/>
		<rect x="600.9" y="299.6" class="st1" width="35.3" height="27.2"/>
		<rect x="600.9" y="272.3" class="st8" width="35.3" height="27.2"/>
		<rect x="600.9" y="245.1" class="st6" width="35.3" height="27.2"/>
		<rect x="600.9" y="217.9" class="st6" width="35.3" height="27.2"/>
		<rect x="600.9" y="190.6" class="st6" width="35.3" height="27.2"/>
		<rect x="600.9" y="163.4" class="st6" width="35.3" height="27.2"/>
		<rect x="600.9" y="136.2" class="st6" width="35.3" height="27.2"/>
		<rect x="600.9" y="108.9" class="st6" width="35.3" height="27.2"/>
		<rect x="600.9" y="81.7" class="st9" width="35.3" height="27.2"/>
		<rect x="600.9" y="54.5" class="st6" width="35.3" height="27.2"/>
		<rect x="600.9" y="27.2" class="st6" width="35.3" height="27.2"/>
		<rect x="600.9" y="0" class="st3" width="35.3" height="27.2"/>
		<rect x="565.5" y="299.6" class="st1" width="35.3" height="27.2"/>
		<rect x="565.5" y="272.3" class="st6" width="35.3" height="27.2"/>
		<rect x="565.5" y="245.1" class="st6" width="35.3" height="27.2"/>
		<rect x="565.5" y="217.9" class="st9" width="35.3" height="27.2"/>
		<rect x="565.5" y="190.6" class="st9" width="35.3" height="27.2"/>
		<rect x="565.5" y="163.4" class="st9" width="35.3" height="27.2"/>
		<rect x="565.5" y="136.2" class="st9" width="35.3" height="27.2"/>
		<rect x="565.5" y="108.9" class="st6" width="35.3" height="27.2"/>
		<rect x="565.5" y="81.7" class="st6" width="35.3" height="27.2"/>
		<rect x="565.5" y="54.5" class="st6" width="35.3" height="27.2"/>
		<rect x="565.5" y="27.2" class="st6" width="35.3" height="27.2"/>
		<rect x="565.5" y="0" class="st3" width="35.3" height="27.2"/>
		<rect x="530.2" y="299.6" class="st1" width="35.3" height="27.2"/>
		<rect x="530.2" y="272.3" class="st6" width="35.3" height="27.2"/>
		<rect x="530.2" y="245.1" class="st6" width="35.3" height="27.2"/>
		<rect x="530.2" y="217.9" class="st6" width="35.3" height="27.2"/>
		<rect x="530.2" y="190.6" class="st6" width="35.3" height="27.2"/>
		<rect x="530.2" y="163.4" class="st9" width="35.3" height="27.2"/>
		<rect x="530.2" y="136.2" class="st6" width="35.3" height="27.2"/>
		<rect x="530.2" y="108.9" class="st6" width="35.3" height="27.2"/>
		<rect x="530.2" y="81.7" class="st9" width="35.3" height="27.2"/>
		<rect x="530.2" y="54.5" class="st6" width="35.3" height="27.2"/>
		<rect x="530.2" y="27.2" class="st6" width="35.3" height="27.2"/>
		<rect x="530.2" y="0" class="st3" width="35.3" height="27.2"/>
		<rect x="494.8" y="299.6" class="st1" width="35.3" height="27.2"/>
		<rect x="494.8" y="272.3" class="st6" width="35.3" height="27.2"/>
		<rect x="494.8" y="245.1" class="st6" width="35.3" height="27.2"/>
		<rect x="494.8" y="217.9" class="st6" width="35.3" height="27.2"/>
		<rect x="494.8" y="190.6" class="st6" width="35.3" height="27.2"/>
		<rect x="494.8" y="163.4" class="st9" width="35.3" height="27.2"/>
		<rect x="494.8" y="136.2" class="st6" width="35.3" height="27.2"/>
		<rect x="494.8" y="108.9" class="st6" width="35.3" height="27.2"/>
		<rect x="494.8" y="81.7" class="st9" width="35.3" height="27.2"/>
		<rect x="494.8" y="54.5" class="st6" width="35.3" height="27.2"/>
		<rect x="494.8" y="27.2" class="st6" width="35.3" height="27.2"/>
		<rect x="494.8" y="0" class="st3" width="35.3" height="27.2"/>
		<rect x="459.5" y="299.6" class="st1" width="35.3" height="27.2"/>
		<rect x="459.5" y="272.3" class="st6" width="35.3" height="27.2"/>
		<rect x="459.5" y="245.1" class="st6" width="35.3" height="27.2"/>
		<rect x="459.5" y="217.9" class="st9" width="35.3" height="27.2"/>
		<rect x="459.5" y="190.6" class="st9" width="35.3" height="27.2"/>
		<rect x="459.5" y="163.4" class="st9" width="35.3" height="27.2"/>
		<rect x="459.5" y="136.2" class="st9" width="35.3" height="27.2"/>
		<rect x="459.5" y="108.9" class="st9" width="35.3" height="27.2"/>
		<rect x="459.5" y="81.7" class="st6" width="35.3" height="27.2"/>
		<rect x="459.5" y="54.5" class="st6" width="35.3" height="27.2"/>
		<rect x="459.5" y="27.2" class="st6" width="35.3" height="27.2"/>
		<rect x="459.5" y="0" class="st3" width="35.3" height="27.2"/>
		<rect x="424.1" y="299.6" class="st1" width="35.3" height="27.2"/>
		<rect x="424.1" y="272.3" class="st6" width="35.3" height="27.2"/>
		<rect x="424.1" y="245.1" class="st6" width="35.3" height="27.2"/>
		<rect x="424.1" y="217.9" class="st6" width="35.3" height="27.2"/>
		<rect x="424.1" y="190.6" class="st6" width="35.3" height="27.2"/>
		<rect x="424.1" y="163.4" class="st6" width="35.3" height="27.2"/>
		<rect x="424.1" y="136.2" class="st6" width="35.3" height="27.2"/>
		<rect x="424.1" y="108.9" class="st6" width="35.3" height="27.2"/>
		<rect x="424.1" y="81.7" class="st6" width="35.3" height="27.2"/>
		<rect x="424.1" y="54.5" class="st6" width="35.3" height="27.2"/>
		<rect x="424.1" y="27.2" class="st6" width="35.3" height="27.2"/>
		<rect x="424.1" y="0" class="st3" width="35.3" height="27.2"/>
		<rect x="388.8" y="299.6" class="st1" width="35.3" height="27.2"/>
		<rect x="388.8" y="272.3" class="st6" width="35.3" height="27.2"/>
		<rect x="388.8" y="245.1" class="st6" width="35.3" height="27.2"/>
		<rect x="388.8" y="217.9" class="st9" width="35.3" height="27.2"/>
		<rect x="388.8" y="190.6" class="st6" width="35.3" height="27.2"/>
		<rect x="388.8" y="163.4" class="st6" width="35.3" height="27.2"/>
		<rect x="388.8" y="136.2" class="st6" width="35.3" height="27.2"/>
		<rect x="388.8" y="108.9" class="st6" width="35.3" height="27.2"/>
		<rect x="388.8" y="81.7" class="st6" width="35.3" height="27.2"/>
		<rect x="388.8" y="54.5" class="st6" width="35.3" height="27.2"/>
		<rect x="388.8" y="27.2" class="st6" width="35.3" height="27.2"/>
		<rect x="388.8" y="0" class="st3" width="35.3" height="27.2"/>
		<rect x="353.4" y="299.6" class="st1" width="35.3" height="27.2"/>
		<rect x="353.4" y="272.3" class="st6" width="35.3" height="27.2"/>
		<rect x="353.4" y="245.1" class="st6" width="35.3" height="27.2"/>
		<rect x="353.4" y="217.9" class="st9" width="35.3" height="27.2"/>
		<rect x="353.4" y="190.6" class="st6" width="35.3" height="27.2"/>
		<rect x="353.4" y="163.4" class="st6" width="35.3" height="27.2"/>
		<rect x="353.4" y="136.2" class="st6" width="35.3" height="27.2"/>
		<rect x="353.4" y="108.9" class="st6" width="35.3" height="27.2"/>
		<rect x="353.4" y="81.7" class="st6" width="35.3" height="27.2"/>
		<rect x="353.4" y="54.5" class="st6" width="35.3" height="27.2"/>
		<rect x="353.4" y="27.2" class="st6" width="35.3" height="27.2"/>
		<rect x="353.4" y="0" class="st3" width="35.3" height="27.2"/>
		<rect x="318.1" y="299.6" class="st1" width="35.3" height="27.2"/>
		<rect x="318.1" y="272.3" class="st8" width="35.3" height="27.2"/>
		<rect x="318.1" y="245.1" class="st6" width="35.3" height="27.2"/>
		<rect x="318.1" y="217.9" class="st9" width="35.3" height="27.2"/>
		<rect x="318.1" y="190.6" class="st9" width="35.3" height="27.2"/>
		<rect x="318.1" y="163.4" class="st9" width="35.3" height="27.2"/>
		<rect x="318.1" y="136.2" class="st9" width="35.3" height="27.2"/>
		<rect x="318.1" y="108.9" class="st9" width="35.3" height="27.2"/>
		<rect x="318.1" y="81.7" class="st9" width="35.3" height="27.2"/>
		<rect x="318.1" y="54.5" class="st6" width="35.3" height="27.2"/>
		<rect x="318.1" y="27.2" class="st6" width="35.3" height="27.2"/>
		<rect x="318.1" y="0" class="st3" width="35.3" height="27.2"/>
		<rect x="282.8" y="299.6" class="st1" width="35.3" height="27.2"/>
		<rect x="282.8" y="272.3" class="st8" width="35.3" height="27.2"/>
		<rect x="282.8" y="245.1" class="st6" width="35.3" height="27.2"/>
		<rect x="282.8" y="217.9" class="st6" width="35.3" height="27.2"/>
		<rect x="282.8" y="190.6" class="st6" width="35.3" height="27.2"/>
		<rect x="282.8" y="163.4" class="st6" width="35.3" height="27.2"/>
		<rect x="282.8" y="136.2" class="st6" width="35.3" height="27.2"/>
		<rect x="282.8" y="108.9" class="st6" width="35.3" height="27.2"/>
		<rect x="282.8" y="81.7" class="st6" width="35.3" height="27.2"/>
		<rect x="282.8" y="54.5" class="st6" width="35.3" height="27.2"/>
		<rect x="282.8" y="27.2" class="st6" width="35.3" height="27.2"/>
		<rect x="282.8" y="0" class="st3" width="35.3" height="27.2"/>
		<rect x="247.4" y="299.6" class="st1" width="35.3" height="27.2"/>
		<rect x="247.4" y="272.3" class="st7" width="35.3" height="27.2"/>
		<rect x="247.4" y="245.1" class="st6" width="35.3" height="27.2"/>
		<rect x="247.4" y="217.9" class="st6" width="35.3" height="27.2"/>
		<rect x="247.4" y="190.6" class="st6" width="35.3" height="27.2"/>
		<rect x="247.4" y="163.4" class="st6" width="35.3" height="27.2"/>
		<rect x="247.4" y="136.2" class="st9" width="35.3" height="27.2"/>
		<rect x="247.4" y="108.9" class="st9" width="35.3" height="27.2"/>
		<rect x="247.4" y="81.7" class="st9" width="35.3" height="27.2"/>
		<rect x="247.4" y="54.5" class="st6" width="35.3" height="27.2"/>
		<rect x="247.4" y="27.2" class="st6" width="35.3" height="27.2"/>
		<rect x="247.4" y="0" class="st3" width="35.3" height="27.2"/>
		<rect x="212.1" y="299.6" class="st1" width="35.3" height="27.2"/>
		<rect x="212.1" y="272.3" class="st7" width="35.3" height="27.2"/>
		<rect x="212.1" y="245.1" class="st8" width="35.3" height="27.2"/>
		<rect x="212.1" y="217.9" class="st6" width="35.3" height="27.2"/>
		<rect x="212.1" y="190.6" class="st6" width="35.3" height="27.2"/>
		<rect x="212.1" y="163.4" class="st6" width="35.3" height="27.2"/>
		<rect x="212.1" y="136.2" class="st9" width="35.3" height="27.2"/>
		<rect x="212.1" y="108.9" class="st6" width="35.3" height="27.2"/>
		<rect x="212.1" y="81.7" class="st9" width="35.3" height="27.2"/>
		<rect x="212.1" y="54.5" class="st6" width="35.3" height="27.2"/>
		<rect x="212.1" y="27.2" class="st5" width="35.3" height="27.2"/>
		<rect x="212.1" y="0" class="st3" width="35.3" height="27.2"/>
		<rect x="176.7" y="299.6" class="st4" width="35.3" height="27.2"/>
		<rect x="176.7" y="272.3" class="st7" width="35.3" height="27.2"/>
		<rect x="176.7" y="245.1" class="st7" width="35.3" height="27.2"/>
		<rect x="176.7" y="217.9" class="st9" width="35.3" height="27.2"/>
		<rect x="176.7" y="190.6" class="st9" width="35.3" height="27.2"/>
		<rect x="176.7" y="163.4" class="st9" width="35.3" height="27.2"/>
		<rect x="176.7" y="136.2" class="st9" width="35.3" height="27.2"/>
		<rect x="176.7" y="108.9" class="st9" width="35.3" height="27.2"/>
		<rect x="176.7" y="81.7" class="st9" width="35.3" height="27.2"/>
		<rect x="176.7" y="54.5" class="st6" width="35.3" height="27.2"/>
		<rect x="176.7" y="27.2" class="st5" width="35.3" height="27.2"/>
		<rect x="176.7" y="0" class="st3" width="35.3" height="27.2"/>
		<rect x="141.4" y="299.6" class="st4" width="35.3" height="27.2"/>
		<rect x="141.4" y="272.3" class="st1" width="35.3" height="27.2"/>
		<rect x="141.4" y="245.1" class="st7" width="35.3" height="27.2"/>
		<rect x="141.4" y="217.9" class="st7" width="35.3" height="27.2"/>
		<rect x="141.4" y="190.6" class="st6" width="35.3" height="27.2"/>
		<rect x="141.4" y="163.4" class="st6" width="35.3" height="27.2"/>
		<rect x="141.4" y="136.2" class="st6" width="35.3" height="27.2"/>
		<rect x="141.4" y="108.9" class="st6" width="35.3" height="27.2"/>
		<rect x="141.4" y="81.7" class="st6" width="35.3" height="27.2"/>
		<rect x="141.4" y="54.5" class="st6" width="35.3" height="27.2"/>
		<rect x="141.4" y="27.2" class="st5" width="35.3" height="27.2"/>
		<rect x="141.4" y="0" class="st3" width="35.3" height="27.2"/>
		<rect x="106" y="299.6" class="st4" width="35.3" height="27.2"/>
		<rect x="106" y="272.3" class="st1" width="35.3" height="27.2"/>
		<rect x="106" y="245.1" class="st1" width="35.3" height="27.2"/>
		<rect x="106" y="217.9" class="st7" width="35.3" height="27.2"/>
		<rect x="106" y="190.6" class="st8" width="35.3" height="27.2"/>
		<rect x="106" y="163.4" class="st6" width="35.3" height="27.2"/>
		<rect x="106" y="136.2" class="st6" width="35.3" height="27.2"/>
		<rect x="106" y="108.9" class="st6" width="35.3" height="27.2"/>
		<rect x="106" y="81.7" class="st6" width="35.3" height="27.2"/>
		<rect x="106" y="54.5" class="st5" width="35.3" height="27.2"/>
		<rect x="106" y="27.2" class="st3" width="35.3" height="27.2"/>
		<rect x="106" y="0" class="st5" width="35.3" height="27.2"/>
		<rect x="70.7" y="272.3" class="st4" width="35.3" height="27.2"/>
		<rect x="70.7" y="245.1" class="st1" width="35.3" height="27.2"/>
		<rect x="70.7" y="217.9" class="st1" width="35.3" height="27.2"/>
		<rect x="70.7" y="190.6" class="st2" width="35.3" height="27.2"/>
		<rect x="70.7" y="163.4" class="st6" width="35.3" height="27.2"/>
		<rect x="70.7" y="136.2" class="st6" width="35.3" height="27.2"/>
		<rect x="70.7" y="108.9" class="st6" width="35.3" height="27.2"/>
		<rect x="70.7" y="81.7" class="st5" width="35.3" height="27.2"/>
		<rect x="70.7" y="54.5" class="st3" width="35.3" height="27.2"/>
		<rect x="70.7" y="27.2" class="st5" width="35.3" height="27.2"/>
		<rect x="35.3" y="245.1" class="st4" width="35.3" height="27.2"/>
		<rect x="35.3" y="217.9" class="st1" width="35.3" height="27.2"/>
		<rect x="35.3" y="190.6" class="st1" width="35.3" height="27.2"/>
		<rect x="35.3" y="163.4" class="st2" width="35.3" height="27.2"/>
		<rect x="35.3" y="136.2" class="st2" width="35.3" height="27.2"/>
		<rect x="35.3" y="108.9" class="st2" width="35.3" height="27.2"/>
		<rect x="35.3" y="81.7" class="st2" width="35.3" height="27.2"/>
		<rect x="35.3" y="54.5" class="st5" width="35.3" height="27.2"/>
		<rect x="0" y="217.9" class="st1" width="35.3" height="27.2"/>
		<rect x="0" y="190.6" class="st1" width="35.3" height="27.2"/>
		<rect x="0" y="163.4" class="st1" width="35.3" height="27.2"/>
		<rect x="0" y="136.2" class="st1" width="35.3" height="27.2"/>
		<rect x="0" y="108.9" class="st2" width="35.3" height="27.2"/>
		<rect x="0" y="81.7" class="st3" width="35.3" height="27.2"/>
	</g>
</g>
</svg>
