<?xml version="1.0" encoding="utf-8"?>
<!-- Generator: Adobe Illustrator 19.0.0, SVG Export Plug-In . SVG Version: 6.00 Build 0)  -->
<svg version="1.1" id="Layer_1" xmlns="http://www.w3.org/2000/svg" xmlns:xlink="http://www.w3.org/1999/xlink" x="0px" y="0px"
	 width="592.7px" height="177.8px" viewBox="0 0 592.7 177.8" style="enable-background:new 0 0 592.7 177.8;" xml:space="preserve"
	>
<style type="text/css">
	.st0{fill:#B8B2D9;}
</style>
<g id="XMLID_1_">
	<polygon id="XMLID_8_" class="st0" points="592.7,99.1 592.6,99.1 592.6,49.8 592.7,49.8 592.7,0.2 543.2,0.2 543.2,49.6 540,49.6 
		490.4,49.6 490.4,99.1 440.8,99.1 440.8,148.7 391.3,148.7 391.3,99.1 342.4,99.1 342.4,49.6 292.8,49.6 292.8,99.1 243.9,99.1 
		243.9,49.6 194.3,49.6 148.4,49.6 148.4,0 98.8,0 98.8,49.6 49.2,49.6 49.2,99.1 0.4,99.1 0.4,177.8 592.7,177.8 	"/>
	<rect id="XMLID_5_" x="440.7" y="0" class="st0" width="49.6" height="49.6"/>
	<rect id="XMLID_4_" x="0" y="0" class="st0" width="49.6" height="49.6"/>
</g>
</svg>
