<?xml version="1.0" encoding="utf-8"?>
<!-- Generator: Adobe Illustrator 19.0.0, SVG Export Plug-In . SVG Version: 6.00 Build 0)  -->
<svg version="1.1" id="Layer_1" xmlns="http://www.w3.org/2000/svg" xmlns:xlink="http://www.w3.org/1999/xlink" x="0px" y="0px"
	 width="592.3px" height="177.7px" viewBox="-9 320.3 592.3 177.7" style="enable-background:new -9 320.3 592.3 177.7;"
	 xml:space="preserve">
<style type="text/css">
	.st0{fill:#B8B2D9;}
</style>
<g>
	<polygon class="st0" points="583.3,349.2 583.3,320.3 -9,320.3 -9,398.8 38.1,398.8 38.1,349.2 87.7,349.2 87.7,398.8 38.1,398.8 
		38.1,448.4 135.9,448.4 135.9,398.8 185.4,398.8 235,398.8 235,349.2 284.6,349.2 284.6,398.8 284.6,448.4 334.1,448.4 
		334.1,398.8 383.7,398.8 383.7,448.4 432.5,448.4 432.5,497.9 482.1,497.9 482.1,448.4 583.3,448.4 583.3,398.8 533.8,398.8 
		533.8,349.2 	"/>
	<rect id="XMLID_3_" x="235.1" y="448.4" class="st0" width="49.6" height="49.6"/>
</g>
</svg>
