<?xml version="1.0" encoding="utf-8"?>
<!-- Generator: Adobe Illustrator 19.0.0, SVG Export Plug-In . SVG Version: 6.00 Build 0)  -->
<svg version="1.1" id="Layer_1" xmlns="http://www.w3.org/2000/svg" xmlns:xlink="http://www.w3.org/1999/xlink" x="0px" y="0px"
	 width="592.7px" height="925.5px" viewBox="0 0 592.7 925.5" style="enable-background:new 0 0 592.7 925.5;" xml:space="preserve"
	>
<style type="text/css">
	.st0{fill:#B8B2D8;}
</style>
<g id="XMLID_2_">
	<polygon id="XMLID_23_" class="st0" points="592.7,99.1 592.6,99.1 592.6,49.8 592.7,49.8 592.7,0.2 543.2,0.2 543.2,49.6 
		540,49.6 490.4,49.6 490.4,99.1 440.8,99.1 440.8,148.7 391.3,148.7 391.3,99.1 342.4,99.1 342.4,49.6 292.8,49.6 292.8,99.1 
		243.9,99.1 243.9,49.6 194.3,49.6 148.4,49.6 148.4,0 98.8,0 98.8,49.6 49.2,49.6 49.2,99.1 0.4,99.1 0.4,317.2 592.7,317.2 	"/>
	<rect id="XMLID_5_" x="440.7" y="0" class="st0" width="49.6" height="49.6"/>
	<rect id="XMLID_4_" x="0" y="0" class="st0" width="49.6" height="49.6"/>
</g>
<g id="XMLID_6_">
	<polygon id="XMLID_24_" class="st0" points="592.5,776.8 592.5,594.5 0.2,594.5 0.2,826.4 47.3,826.4 47.3,776.8 96.9,776.8 
		96.9,826.4 47.3,826.4 47.3,876 145.1,876 145.1,826.4 194.6,826.4 244.2,826.4 244.2,776.8 293.8,776.8 293.8,826.4 293.8,876 
		343.3,876 343.3,826.4 392.9,826.4 392.9,876 441.7,876 441.7,925.5 491.3,925.5 491.3,876 592.5,876 592.5,826.4 543,826.4 
		543,776.8 	"/>
	<rect id="XMLID_3_" x="244.3" y="876" class="st0" width="49.6" height="49.6"/>
</g>
<rect id="XMLID_30_" y="311.9" class="st0" width="592.7" height="291.6"/>
</svg>
