<?xml version="1.0" encoding="utf-8"?>
<!-- Generator: Adobe Illustrator 19.0.0, SVG Export Plug-In . SVG Version: 6.00 Build 0)  -->
<svg version="1.1" id="Layer_1" xmlns="http://www.w3.org/2000/svg" xmlns:xlink="http://www.w3.org/1999/xlink" x="0px" y="0px"
	 width="592.7px" height="648.2px" viewBox="0 0 592.7 648.2" style="enable-background:new 0 0 592.7 648.2;" xml:space="preserve"
	>
<style type="text/css">
	.st0{fill:#B8B2D8;}
</style>
<g id="XMLID_2_">
	<polygon id="XMLID_6_" class="st0" points="98.8,0 98.8,49.6 49.2,49.6 49.2,99.1 0.4,99.1 0.4,549.1 47.5,549.1 47.5,499.5 
		97.1,499.5 97.1,549.1 47.5,549.1 47.5,598.6 145.3,598.6 145.3,549.1 194.8,549.1 244.4,549.1 244.4,499.5 294,499.5 294,549.1 
		294,598.6 343.5,598.6 343.5,549.1 393.1,549.1 393.1,598.6 441.9,598.6 441.9,648.2 491.5,648.2 491.5,598.6 592.7,598.6 
		592.7,549.1 543.2,549.1 543.2,499.5 592.7,499.5 592.7,99.1 592.6,99.1 592.6,49.8 592.7,49.8 592.7,0.2 543.2,0.2 543.2,49.6 
		540,49.6 490.4,49.6 490.4,99.1 440.8,99.1 440.8,148.7 391.3,148.7 391.3,99.1 342.4,99.1 342.4,49.6 292.8,49.6 292.8,99.1 
		243.9,99.1 243.9,49.6 194.3,49.6 148.4,49.6 148.4,0 	"/>
	<rect id="XMLID_5_" x="440.7" y="0" class="st0" width="49.6" height="49.6"/>
	<rect id="XMLID_4_" x="0" y="0" class="st0" width="49.6" height="49.6"/>
	<rect id="XMLID_3_" x="244.3" y="598.6" class="st0" width="49.6" height="49.6"/>
</g>
</svg>
